<svg version="1.2" xmlns="http://www.w3.org/2000/svg" viewBox="0 0 512 352" width="512" height="352"><style>.a{fill:#fff}</style><path class="a" d="m9.5 1.4c-6.7 2.9-10.5 10.6-9.1 18.1 0.9 4.7 5.9 10.2 10.4 11.5 2.6 0.8 78.5 1 247.4 0.8l243.7-0.3 2.7-2.1c5.3-3.9 6.9-7.1 6.9-13.4 0-6.3-1.6-9.5-6.9-13.4l-2.7-2.1-244.7-0.2c-201.9-0.2-245.2 0-247.7 1.1z"/><path class="a" d="m9.5 161.4c-6.7 2.9-10.5 10.6-9.1 18.1 0.9 4.7 5.9 10.2 10.4 11.5 2.6 0.8 78.5 1 247.4 0.8l243.7-0.3 2.7-2.1c5.3-3.9 6.9-7.1 6.9-13.4 0-6.3-1.6-9.5-6.9-13.4l-2.7-2.1-244.7-0.2c-201.9-0.2-245.2 0-247.7 1.1z"/><path class="a" d="m9.5 321.4c-6.7 2.9-10.5 10.6-9.1 18.1 0.9 4.7 5.9 10.2 10.4 11.5 2.6 0.8 78.5 1 247.4 0.8l243.7-0.3 2.7-2.1c5.3-3.9 6.9-7.1 6.9-13.4 0-6.3-1.6-9.5-6.9-13.4l-2.7-2.1-244.7-0.2c-201.9-0.2-245.2 0-247.7 1.1z"/></svg>