<svg version="1.2" xmlns="http://www.w3.org/2000/svg" viewBox="0 0 20 20" width="20" height="20"><style>.a{fill:#fff}</style><path fill-rule="evenodd" class="a" d="m0 10c0-4.2 0-6.3 1.1-7.7q0.5-0.7 1.2-1.2c1.4-1.1 3.5-1.1 7.7-1.1 4.2 0 6.3 0 7.7 1.1q0.7 0.5 1.2 1.2c1.1 1.4 1.1 3.5 1.1 7.7 0 4.2 0 6.3-1.1 7.7q-0.5 0.7-1.2 1.2c-1.4 1.1-3.5 1.1-7.7 1.1-4.2 0-6.3 0-7.7-1.1q-0.7-0.5-1.2-1.2c-1.1-1.4-1.1-3.5-1.1-7.7zm10-5.3c-2.9 0-5.3 2.4-5.3 5.3 0 2.9 2.4 5.3 5.3 5.3 2.9 0 5.3-2.4 5.3-5.3 0-2.9-2.4-5.3-5.3-5.3zm0 8.6c-1.8 0-3.3-1.5-3.3-3.3 0-1.8 1.5-3.3 3.3-3.3 1.8 0 3.3 1.5 3.3 3.3 0 1.8-1.5 3.3-3.3 3.3zm5.7-9.7c-0.4 0-0.7 0.3-0.7 0.7 0 0.4 0.3 0.7 0.7 0.7 0.4 0 0.7-0.3 0.7-0.7 0-0.4-0.3-0.7-0.7-0.7z"/></svg>