<svg version="1.2" xmlns="http://www.w3.org/2000/svg" viewBox="0 0 640 800" width="640" height="800"><style>.a{fill:#fff}</style><path fill-rule="evenodd" class="a" d="m320 800q-161-137-240.5-254.5-79.5-117.5-79.5-217.5 0-150 96.5-239 96.5-89 223.5-89 127 0 223.5 89 96.5 89 96.5 239 0 100-79.5 217.5-79.5 117.5-240.5 254.5zm0-106q122-112 181-203.5 59-91.5 59-162.5 0-109-69.5-178.5-69.5-69.5-170.5-69.5-101 0-170.5 69.5-69.5 69.5-69.5 178.5 0 71 59 162.5 59 91.5 181 203.5zm-56.5-317.5q-23.5-23.5-23.5-56.5 0-33 23.5-56.5 23.5-23.5 56.5-23.5 33 0 56.5 23.5 23.5 23.5 23.5 56.5 0 33-23.5 56.5-23.5 23.5-56.5 23.5-33 0-56.5-23.5z"/></svg>