<svg version="1.2" xmlns="http://www.w3.org/2000/svg" viewBox="0 0 508 173" width="508" height="173"><style>.a{fill:#6d6d6d}</style><path fill-rule="evenodd" class="a" d="m494.5 68.3c2.4 9 3.8 21.6 4.5 32l0.3 3.9h4.4c2.1 0 3.9 1.7 3.9 3.9v10.1c0 2.2-1.8 3.9-3.9 3.9h-12.8c-11 5.2-30.4 9.6-46.3 12.1 0.1-1.3 0.2-2.6 0.2-3.9 0-27.9-22.6-50.4-50.4-50.4-16.6 0-31.4 8-40.5 20.4l-2.7 3.9c-4.6 7.6-7.2 16.5-7.2 26.1q0 3 0.3 6h-186.9q0.4-3 0.4-6 0-1-0.1-2l-0.3-3.9c-2.9-25.1-24.2-44.5-50-44.5-27.9 0-50.4 22.5-50.4 50.4 0 2 0.1 4 0.3 6h-3.5c-7.9 0-16.5-1.2-24.3-3.8h-24.9c-2.2 0-3.9-1.8-3.9-3.9v-10.2c0-2.1 1.7-3.9 3.9-3.9h1.2c-1.6-3-2.8-6.5-3.3-10.3l-0.4-3.9c0-0.4 0-0.8 0-1.2 0-37.2 92-45.5 138-45.5 19.7-21.2 54.2-46.1 71.1-53.3 159.9 0 163.2 6.9 203.3 50 29.8 0 78.2 11.4 80 18zm-158.1-14.7c41.6 0 13.2-35.4-6.9-37.7-2.2-0.3-4.5-0.5-6.7-0.7v38.4zm-17.5-38.8c-12.2-1.1-24.5-1.6-36.6-1.9-21.3-0.7-42.6-0.9-63.8-0.9v41.6h100.4zm-105.2-2.7c-5.7 2.7-11.6 6.4-16.7 9.7-8.3 5.5-16.4 11.5-24.1 17.7-5.5 4.5-11.1 9.2-16.3 14.2h58v-41.6zm-106.3 160.8c-23.6 0-42.6-19-42.6-42.6 0-23.5 19-42.6 42.6-42.6 23.5 0 42.6 19.1 42.6 42.6 0 23.6-19.1 42.6-42.6 42.6zm23.1-42.6c0-12.7-10.4-23.1-23.1-23.1-12.8 0-23.1 10.4-23.1 23.1 0 12.8 10.3 23.1 23.1 23.1 12.7 0 23.1-10.3 23.1-23.1zm263.9 42.6c-23.6 0-42.6-19-42.6-42.6 0-23.5 19-42.6 42.6-42.6 23.5 0 42.6 19.1 42.6 42.6 0 23.6-19.1 42.6-42.6 42.6zm23-42.6c0-12.7-10.3-23.1-23-23.1-12.8 0-23.1 10.4-23.1 23.1 0 12.8 10.3 23.1 23.1 23.1 12.7 0 23-10.3 23-23.1z"/></svg>