<svg version="1.2" xmlns="http://www.w3.org/2000/svg" viewBox="0 0 801 640" width="801" height="640"><style>.a{fill:#fff}</style><path fill-rule="evenodd" class="a" d="m400 0q59 0 113.5 16.5 54.5 16.5 102.5 49.5l-76 48q-33-17-68.5-25.5-35.5-8.5-71.5-8.5-133 0-226.5 93.5-93.5 93.5-93.5 226.5 0 42 11.5 83 11.5 41 32.5 77h552q23-38 33.5-79 10.5-41 10.5-85 0-36-8.5-70-8.5-34-25.5-66l48-76q30 47 47.5 100 17.5 53 18.5 110 1 57-13 109-14 52-41 99-11 18-30 28-19 10-40 10h-552q-21 0-40-10-19-10-30-28-26-45-40-95.5-14-50.5-14-106.5 0-83 31.5-155.5 31.5-72.5 86-127 54.5-54.5 127.5-86 73-31.5 155-31.5zm-84.5 399q1.5-37 28.5-55l336-224-224 336q-18 27-56 27.5-38 0.5-62-23.5-24-24-22.5-61z"/></svg>