<svg version="1.2" xmlns="http://www.w3.org/2000/svg" viewBox="0 0 488 153" width="488" height="153"><style>.a{fill:#6d6d6d}</style><path fill-rule="evenodd" class="a" d="m109.3 67.9c23.5 0 42.6 19.1 42.6 42.6 0 23.5-19.1 42.6-42.6 42.6-23.5 0-42.6-19.1-42.6-42.6 0-23.5 19.1-42.6 42.6-42.6zm378-34.6c0 23.9-2.6 24.4-2.6 43.2 0 5.5 1.7 9.2 2.3 19.4l0.2 3.9q0.1 1.9 0.1 4.1c0 3.2-19.7 9-41.1 13.9q0.5-3.6 0.5-7.3c0-27.8-22.6-50.4-50.4-50.4-22.8 0-42 15.1-48.3 35.8l-1 3.9c-0.7 3.5-1.1 7.1-1.1 10.7 0 5.5 0.9 10.8 2.5 15.8h-191.2c0.8-2.5 1.5-5.1 1.9-7.8l0.4-3.9q0.2-2 0.2-4.1c0-27.8-22.5-50.4-50.4-50.4-27.8 0-50.4 22.6-50.4 50.4 0 5.5 0.9 10.8 2.5 15.8h-52c-7.1 0-8.4 0-8.6-26.5v-3.9c0-4.8 0-10.3 0-16.7 0-37 143-36.3 159.9-40.3 38.6-9.1 59.5-38.8 124.1-38.8 44.7 0 85 15.4 128.8 24.4 21.6 5.8 73.7-4.1 73.7 8.8zm-298.8 8.1c-38.3 17.7 93 8.8 169.9 0.7l-12.8-22.1c-20.1-4.7-40.3-8.2-60.8-8.2-19.4 0-37.3 2.8-55.3 9.9-14.2 5.6-27.2 13.3-41 19.7zm207.8 26.5c23.5 0 42.6 19.1 42.6 42.6 0 23.5-19.1 42.6-42.6 42.6-23.5 0-42.6-19.1-42.6-42.6 0-23.5 19.1-42.6 42.6-42.6zm-23.1 42.6c0 12.8 10.4 23.1 23.1 23.1 12.7 0 23.1-10.3 23.1-23.1 0-12.7-10.4-23-23.1-23-12.7 0-23.1 10.3-23.1 23zm-287 0c0 12.8 10.4 23.1 23.1 23.1 12.7 0 23.1-10.3 23.1-23.1 0-12.7-10.4-23-23.1-23-12.7 0-23.1 10.3-23.1 23z"/></svg>