<svg version="1.2" xmlns="http://www.w3.org/2000/svg" viewBox="0 0 508 210" width="508" height="210"><style>.a{fill:#6d6d6d}</style><path fill-rule="evenodd" class="a" d="m435.1 0.1c35.3 0 48.5-0.4 59 74.3 1.7 12.2 13 14.1 13 40.2q0 4.9-0.3 9.5l-0.3 3.9c-5.1 54.4-42.2 48.8-50.5 48.8h-0.9q1.1-5 1.1-10.2c0-27.8-22.6-50.4-50.4-50.4-10 0-19.2 2.9-27 7.9l-5.3 3.9c-11.1 9.2-18.2 23.1-18.2 38.6q0 5.2 1.1 10.2h-232.7c0.5-2.6 0.9-5.2 1-7.8v-4c-0.8-27-23-48.8-50.4-48.8-27.8 0-50.4 22.6-50.4 50.4 0 2.2 0.2 4.2 0.4 6.3-14.9-5.2-23-17.1-24-44.9v-3.9q0-1 0-1.8c0-56.9 34.9-61.5 146.7-61.5 38.7-39.6 59.5-60.7 114.8-60.7 68.9 0 104.3 0 173.3 0zm-360.8 124c23.6 0 42.6 19 42.6 42.5 0 23.6-19 42.6-42.6 42.6-23.5 0-42.6-19-42.6-42.6 0-23.5 19.1-42.5 42.6-42.5zm-23 42.5c0 12.8 10.3 23.1 23 23.1 12.8 0 23.1-10.3 23.1-23.1 0-12.7-10.3-23-23.1-23-12.7 0-23 10.3-23 23zm354.5-42.5c23.5 0 42.6 19 42.6 42.5 0 23.6-19.1 42.6-42.6 42.6-23.6 0-42.6-19-42.6-42.6 0-23.5 19-42.5 42.6-42.5zm-23.1 42.5c0 12.8 10.3 23.1 23.1 23.1 12.7 0 23-10.3 23-23.1 0-12.7-10.3-23-23-23-12.8 0-23.1 10.3-23.1 23zm24.9-154.8v49h58.1c-1.8-11-4.3-22.5-8-31.9-2.1-5.3-5.1-11.6-10.4-14.3-6.5-3.3-19.4-2.8-26.6-2.8zm-3.9 0h-134.5v49h134.5zm-138.4 0h-3.6c-18.8 0-36.5 2.5-53.3 11.4-16.4 8.8-31.5 23.7-45.1 37.6h102z"/></svg>