<svg version="1.2" xmlns="http://www.w3.org/2000/svg" viewBox="0 0 22 18" width="22" height="18"><style>.a{fill:#fff}</style><path class="a" d="m21.5 2.8q-1.2 0.5-2.5 0.6c0.9-0.5 1.6-1.3 1.9-2.3q-1.2 0.8-2.7 1c-0.8-0.8-1.9-1.3-3.2-1.3-2.3 0-4.3 1.9-4.3 4.2q0 0.5 0.1 0.9c-3.5-0.2-6.7-1.8-8.8-4.3-0.4 0.6-0.6 1.3-0.6 2.1 0 1.4 0.7 2.7 1.9 3.4q-1.1 0-2-0.5c0 2 1.5 3.7 3.5 4.1q-0.5 0.1-1.1 0.1-0.5 0-0.8-0.1c0.5 1.7 2.1 2.9 4 2.9-1.5 1.1-3.4 1.8-5.4 1.8q-0.5 0-1-0.1c1.9 1.2 4.2 1.9 6.6 1.9 7.9 0 12.3-6.3 12.3-11.8l-0.1-0.5c0.9-0.6 1.6-1.3 2.2-2.1z"/></svg>