<svg xmlns="http://www.w3.org/2000/svg" version="1.1" xmlns:xlink="http://www.w3.org/1999/xlink" xmlns:svgjs="http://svgjs.dev/svgjs" viewBox="0 0 3.5149217539513744 3.1096321927129464"><g transform="matrix(1,0,0,1,1.7519563841865007,3.0217295588517095)"><g><path d=" M -0.9746902681937499 -1.7108367809917566 Q -0.8916472171592378 -1.637320922658562 -0.8308516817923522 -1.5829231368902537 Q -0.8184801895614751 -1.5718417797530682 -0.818693597235939 -1.5599207254811596 Q -0.818907004910403 -1.5479996712092512 -0.8258018376808017 -1.5407431783279988 Q -0.8326966704512004 -1.5334866854467464 -0.8433964532609854 -1.5332132351190277 Q -0.8540962360707705 -1.5329397847913089 -0.8650694692082742 -1.5433661172733752 L -1.1312588666083645 -1.7962887632899527 Q -1.2693092189834112 -1.9274587525804647 -1.3854318831700372 -2.0249965474136262 Q -1.402015794637662 -2.0387332870845425 -1.39895237484159 -2.0540082853718884 Q -1.3977305353144867 -2.060256346400502 -1.3942254985377596 -2.0650085495093125 Q -1.3907204617610325 -2.069760752618124 -1.3811784993702365 -2.088309738051106 Q -1.3568014514778097 -2.134522855958939 -1.3226636209316893 -2.170451345102701 Q -1.288525790385569 -2.206379834246463 -1.2581951821387545 -2.222351689820576 Q -1.22786457389194 -2.238323545394689 -1.1957740464408984 -2.2394890506620317 Q -1.1274511401285758 -2.241925912936479 -1.059841864991053 -2.1776862515147153 Q -0.9727639504160235 -2.094948258269931 -0.9569522766428791 -1.9492567302999657 Q -0.954281524412441 -1.925839164845157 -0.9533100806679955 -1.9013420316462208 Q -0.8141568379423949 -1.8351316156093 -0.6593205596671072 -1.7769203588269062 Q -0.6321338961511461 -1.7672537666097612 -0.6394285132705524 -1.7418546213629278 Q -0.6413406613660289 -1.7355889183776878 -0.6467219942599987 -1.7299253141776858 Q -0.6588299932714305 -1.7171822047276815 -0.678387978622032 -1.7256622413309772 Q -0.7220703438224827 -1.7456140303771723 -0.7610798947189438 -1.76516717120432 Q -0.8000894456154048 -1.7847203120314676 -0.8371697745247422 -1.8031139282446864 Q -0.9036488283081765 -1.836643679352155 -0.9535792545372401 -1.8578173079254534 Q -0.9562403177207704 -1.786255698380749 -0.9746902681937499 -1.7108367809917566 M -1.0093269180488806 -1.7417265192622016 Q -0.9887519798709405 -1.8285972748775465 -0.9982660751354706 -1.9305865234305142 Q -1.0121490949864713 -2.0683836077557545 -1.0886077516864971 -2.141031601824346 Q -1.1678982104865239 -2.216370262339922 -1.2437109315711097 -2.1826578110091557 Q -1.2853787053262016 -2.1643239374455767 -1.3209076781823217 -2.1085005615803603 Q -1.337848973302326 -2.0821641203723753 -1.344222800287248 -2.0612784437549085 Q -1.2420485792510623 -1.9554404402746013 -1.1698376257010379 -1.8868284458764872 Q -1.093024993738512 -1.8138441185020229 -1.0870162352543233 -1.8084716065863666 Q -1.0810074767701348 -1.8030990946707104 -1.0760606440734466 -1.7987355826726734 Q -1.0711138113767584 -1.7943720706746364 -1.0656448367646336 -1.7898492130019765 Q -1.0601758621525088 -1.7853263553293166 -1.050114030106196 -1.776776318964493 Q -1.040052198059883 -1.7682262825996693 -1.0241585951606316 -1.7544719009721257 Q -1.0174507071297563 -1.74877187672891 -1.0093269180488806 -1.7417265192622016 M -0.5694643109199425 -2.080951169601524 L -0.49973979026806326 -1.9222497319096858 Q -0.49043343622344177 -1.9007390791849041 -0.48384143544183483 -1.8855023668381838 Q -0.48048506120445766 -1.878974170237619 -0.4783523550692319 -1.8740446456548567 Q -0.36542142826412816 -1.9229030043891195 -0.3297769836016301 -1.9425803503787413 Q -0.2929820055197629 -1.9632874820945847 -0.2859325356379831 -1.9642092809638676 Q -0.2788830657562033 -1.9651310798331503 -0.27265673838850724 -1.96303665620655 Q -0.26020408365311515 -1.9588478089533492 -0.25603561257062846 -1.9492128290870407 Q -0.2518671414881417 -1.9395778492207323 -0.25737659803145874 -1.928947935802359 Q -0.2628860545747758 -1.9183180223839853 -0.2785105316733554 -1.9126222987992443 Q -0.35452573270344434 -1.8866513909264158 -0.4120320275011922 -1.8572497392170266 Q -0.46953832229894005 -1.8278480875076373 -0.4762238339340432 -1.8236256229966812 Q -0.48290934556914644 -1.8194031584857249 -0.48899578398938237 -1.8180999752826872 Q -0.4950822224096183 -1.8167967920796493 -0.5011146674013847 -1.8184430771078168 Q -0.514717855556146 -1.8216021386347958 -0.5202196967649575 -1.8367784771349425 Q -0.569529624432122 -1.9691987677210094 -0.637485397195452 -2.126271346471759 Q -0.7054411699587821 -2.2833439252225083 -0.7227634556811957 -2.3239974095686553 Q -0.7400857414036095 -2.364650893914802 -0.7546269195983306 -2.3982612887972734 Q -0.7867382593198645 -2.4700238383931197 -0.8018721303113487 -2.4988556433092626 Q -0.8170060013028329 -2.5276874482254055 -0.8161654327016707 -2.5349673678245064 Q -0.8153248641005086 -2.542247287423607 -0.8115586337733238 -2.54706882514943 Q -0.8061937314283368 -2.553114030977405 -0.7951110141606605 -2.5557807712300544 Q -0.7749320163949692 -2.5607868608300675 -0.7440104531030957 -2.5741647447692113 Q -0.6844080195115131 -2.59995110076785 -0.6637396505551278 -2.6118191582918175 Q -0.6430712815987426 -2.623687215815785 -0.6359248705289979 -2.6243849453858514 Q -0.6287784594592535 -2.6250826749559177 -0.62319415306592 -2.6232425075518204 Q -0.611129263082387 -2.6199499374954858 -0.606669968436006 -2.6096427497315275 Q -0.6022106737896248 -2.5993355619675698 -0.6073689329224736 -2.5891236002243425 Q -0.6125271920553226 -2.5789116384811153 -0.6267103121706386 -2.5735734927249467 Q -0.6408934322859544 -2.5682353469687778 -0.6570629891709318 -2.562569810307324 Q -0.673232546055909 -2.55690427364587 -0.6915458547450863 -2.550045255805551 Q -0.7297711441412431 -2.535103552022762 -0.756586325364438 -2.5208421517229613 Q -0.7397185586585615 -2.4818540936592943 -0.7234928129270475 -2.443120291818131 Q -0.7041649491806597 -2.3972162724020403 -0.6842554383064832 -2.349967837190651 Q -0.6309250240896305 -2.22301110530477 -0.604944785715062 -2.162960533114754 Q -0.5489274609109431 -2.1871958301059564 -0.5236505778589767 -2.2013237218764012 Q -0.4963268841907752 -2.216869164124927 -0.48641212642954645 -2.2142424215481373 Q -0.4764973686683178 -2.2116156789713477 -0.47223195639786625 -2.201756629805823 Q -0.46156842572173745 -2.1771090068920107 -0.5081144661121907 -2.158035399368126 Q -0.5177192590552122 -2.154412008072037 -0.5253376152285725 -2.1511160076812335 L -0.5618307240775711 -2.135859673829368 L -0.5882709013851152 -2.1244206136495203 L -0.5694643109199425 -2.080951169601524 M 0.24262589421173208 -2.70153629045305 Q 0.2320789946686983 -2.458583399401347 0.2289198555125384 -2.3578028234232074 Q 0.2257607163563785 -2.2570222474450676 0.2245284323826237 -2.2099185905372294 Q 0.22329614840886897 -2.162814933629391 0.22245322089987252 -2.1203400220107262 Q 0.22061438093484997 -2.0305097834717913 0.22080183636780182 -1.9975287339492012 Q 0.22098929180075372 -1.9645476844266112 0.2178621621886524 -1.9582949355027426 Q 0.21473503257655108 -1.9520421865788742 0.20971693082261966 -1.9478027977544592 Q 0.1891411837820306 -1.9303724994213425 0.16715022823573694 -1.945717476082493 Q 0.1585490626292837 -1.951849347349072 0.15501189426087064 -1.963684732030547 Q 0.11601125124011014 -2.090945714345812 0.060121896147853626 -2.2404752905625243 Q 0.004232541055597117 -2.3900048667792366 -0.0177691820843974 -2.451759684289742 Q -0.057732119971109996 -2.5639066776647343 -0.08705144546284369 -2.6571562275154608 L -0.10204830568137757 -1.976139412510448 Q -0.10252255901716914 -1.961010125075473 -0.1105607009202812 -1.9539342780383129 Q -0.11859884282339322 -1.946858431001153 -0.12860369419168316 -1.9471720501425636 Q -0.13860854555997304 -1.947485669283974 -0.14689684717518278 -1.9558060781889237 Q -0.15518514879039252 -1.9641264870938733 -0.15419225693503458 -1.9802165590944663 Q -0.14510475559011748 -2.11427499494157 -0.13971968545467783 -2.28606561355806 L -0.1306476780958264 -2.575474240943227 Q -0.1282764114168686 -2.651120678118102 -0.12753906307045879 -2.705811926485482 Q -0.1269730187664495 -2.72386946310142 -0.11569376369113102 -2.7330420568087326 Q -0.10441450861581254 -2.7422146505160456 -0.09221347036180047 -2.7418321881484715 Q -0.06488314467281339 -2.7409754724451063 -0.056909217349181196 -2.7148338984419476 Q -0.04893529002554903 -2.688692324438789 -0.03419913480616743 -2.644507757164228 Q -0.019462979586785806 -2.600323189889667 -0.0011284620201793827 -2.546255404054273 Q 0.017206055546427013 -2.492187618218879 0.03826994186285798 -2.4316835015231812 Q 0.059333828179288894 -2.3711793848274834 0.08041301299042275 -2.3111633096619455 Q 0.1014921978015566 -2.251147234496408 0.12122199673248119 -2.194837366291183 Q 0.1409517956634057 -2.1385274980859577 0.15709853074180846 -2.0925888899717267 Q 0.17324526582021121 -2.046650281857495 0.1844366034238284 -2.0140570784993295 Q 0.18487874946987998 -2.012577655414145 0.18533619401063456 -2.011586273859121 Q 0.1844303667311296 -2.1073648017281994 0.18552411135670943 -2.2201788876687862 Q 0.18738278071743703 -2.357395050117397 0.18781642462028875 -2.425774409071325 Q 0.18825006852314058 -2.494153768025253 0.1887372571574527 -2.5642412723347423 Q 0.18922444579176484 -2.6343287766442325 0.18894132589407886 -2.703219124870375 Q 0.1894308777245734 -2.7188364538355105 0.19820873117027765 -2.7261333738956965 Q 0.2069865846159819 -2.733430293955882 0.21723545674935202 -2.73310902556712 Q 0.2274843288827222 -2.7327877571783583 0.23529988746247443 -2.724970688298272 Q 0.24311544604222662 -2.717153619418186 0.24262589421173208 -2.70153629045305 M 0.7972288369893912 -2.548750702988758 Q 0.8094296965520287 -2.542581489752986 0.955859663719238 -2.4729182069753053 Q 0.9759039330007142 -2.4627830709451093 0.9756000811904582 -2.443786402741522 Q 0.9751397706866307 -2.438547636721184 0.9722754931128796 -2.4328829519242454 Q 0.9694112155391286 -2.4272182671273064 0.9599005986776115 -2.4246406455001983 Q 0.9503899818160944 -2.42206302387309 0.9327447665006525 -2.4315322596669926 Q 0.9150995511852107 -2.441001495460895 0.8987640273748534 -2.450355653628841 Q 0.8824285035644961 -2.4597098117967864 0.8682692481240937 -2.4674164152376115 Q 0.8430009521339481 -2.4812873188103186 0.8244793337458569 -2.4901053936795963 Q 0.7703176937198366 -2.391646679625293 0.7110491808476025 -2.2744312788270964 Q 0.647594416136809 -2.1489367233256806 0.6243472454286534 -2.1024197179671527 Q 0.6011000747204978 -2.0559027126086242 0.5805996474081918 -2.0131947910355033 Q 0.527265279415926 -1.9044690477768802 0.5021330290729018 -1.8515186625188864 Q 0.495077586556702 -1.8364830040058346 0.48425236508621083 -1.8329286409917884 Q 0.4734271436157197 -1.8293742779777424 0.46493011642031135 -1.8336706943383692 Q 0.456433089224903 -1.8379671106989957 0.45178690719796244 -1.8487972452733763 Q 0.4471407251710218 -1.859627379847757 0.4539709255391975 -1.8731354743635342 L 0.4823982853364633 -1.9304383963614378 L 0.6971699723289007 -2.344371566002909 Q 0.7559978271128653 -2.4607154768323465 0.7787261103859658 -2.5132399433137396 Q 0.7558519552579651 -2.5253531276372585 0.7229409261775578 -2.539258422937192 Q 0.684144883256077 -2.5555922508264968 0.6668178787471135 -2.562985556564733 Q 0.64949087423815 -2.570378862302969 0.6458238901500919 -2.5804403017748228 Q 0.6421569060620338 -2.5905017412466766 0.6464533224226603 -2.598998768442085 Q 0.650749738783287 -2.6074957956374933 0.661907910371925 -2.6122496856345565 Q 0.6730660819605628 -2.6170035756316197 0.6882045353398478 -2.608528277088268 Q 0.7033429887191327 -2.6000529785449165 0.7144520292688759 -2.5938886784130344 Q 0.7255610698186189 -2.5877243782811523 0.7338377679698925 -2.5829922169361454 Q 0.742114466121166 -2.578260055591139 0.7484303118427302 -2.574519374944739 Q 0.7547461575642942 -2.570778694298338 0.7613900403001155 -2.5671457216220603 Q 0.7680339230359368 -2.5635127489457825 0.7767488227235351 -2.5591061680630887 L 0.7972288369893912 -2.548750702988758 M 1.2800326050110775 -2.210992809889195 L 1.3410064110260511 -2.1364656771031543 Q 1.3684000097486542 -2.1059390945370424 1.3842911467216692 -2.089692679157531 Q 1.400182283694684 -2.073446263778019 1.4093507806955934 -2.0639602622237048 Q 1.418519277696503 -2.0544742606693904 1.429467535756782 -2.045929304499889 Q 1.4404157938170612 -2.037384348330388 1.4439887069378368 -2.023533101550935 Q 1.4475616200586128 -2.009681854771482 1.4312080936839102 -1.995006712598659 Q 1.415217979006423 -1.980657684696343 1.2772453710464 -1.929339624361405 Q 1.139272763086377 -1.8780215640264668 1.0891788478634514 -1.8596391393072205 Q 1.0390849326405258 -1.8412567145879744 0.9902070122177922 -1.8229814008639191 Q 0.9413290917950586 -1.804706087139864 0.8961551019129637 -1.7877863953529656 Q 0.8509811120308688 -1.7708667035660672 0.8135410975005583 -1.7562948439562673 Q 0.7460316320945062 -1.7291728426432587 0.7194098110573784 -1.7164362138065077 L 0.7285783080582879 -1.7069502122521933 L 0.7321655650338669 -1.7029526835828217 Q 0.8101068756850824 -1.6160972879482898 0.8736809861470113 -1.5576807718369636 Q 0.8861852207064094 -1.5459397052459387 0.8853508098904039 -1.5337099436755361 Q 0.8845163990743985 -1.5214801821051338 0.8768847534328706 -1.514631782424483 Q 0.8692531077913428 -1.5077833827438323 0.8566226370970162 -1.5076021533216077 Q 0.8439921664026897 -1.5074209238993832 0.8343206305675996 -1.5203918527190199 Q 0.8168596496670457 -1.5427741882395543 0.7935424793257826 -1.5687581245904707 Q 0.7702253089845192 -1.5947420609413872 0.7546091214268832 -1.6128753483754594 Q 0.738992933869247 -1.6310086358095317 0.7236655631554096 -1.6480889855786656 Q 0.6878675882530368 -1.6894433242078288 0.6792580762263707 -1.696478687448405 Q 0.6706485641997045 -1.7035140506889812 0.6678440767586195 -1.7091980968509515 Q 0.6650395893175344 -1.7148821430129217 0.6646857401901876 -1.7211251741491354 Q 0.6644906433395431 -1.736695454562961 0.676678802624686 -1.7446804729054524 Q 0.688866961909829 -1.7526654912479438 0.7180278835425316 -1.7644003472748846 Q 0.7471888051752342 -1.7761352033018254 0.7898562106035283 -1.7914616211628962 Q 0.8325236160318223 -1.8067880390239672 0.8853942838389933 -1.825366037020241 Q 0.9382649516461643 -1.8439440350165148 0.9953660188264432 -1.8640220633718452 Q 1.052467086006722 -1.8841000917271753 1.1103322740081405 -1.9055198745912427 Q 1.168197462009559 -1.9269396574553102 1.2205277935558407 -1.9483130567491835 Q 1.3265675085838504 -1.9909852604835137 1.3811997651634198 -2.0229530687103194 Q 1.3639903036799566 -2.0435929405981925 1.3330094479817745 -2.078117051833676 Q 1.2733305364789609 -2.144621392424133 1.2510428738043475 -2.167264809931627 Q 1.2155987480293216 -2.2023761174245764 1.2348595679817491 -2.219660173761457 Q 1.2432180370177082 -2.2271608019831217 1.2559183212805172 -2.2254365106374316 Q 1.2686186055433262 -2.2237122192917416 1.2800326050110775 -2.210992809889195" fill="#f2f0f0" fill-rule="nonzero"></path></g><g clip-path="url(#SvgjsClipPath1001)"><g clip-path="url(#ad4bbfd4a-c76b-4de7-b12e-a61d7695d7e1aed34152-59a0-4be3-8cf7-8df3671f07e2)"><path d=" M -0.0004382743298892988 -0.72827066756267 C -0.10808608339647585 -0.7280821425030087 -0.18919225727789335 -0.8186280354431799 -0.18664716897246614 -0.9201757122221552 C -0.18416941104548934 -1.0191379024686333 -0.09988524330121051 -1.1021697251737335 0.0011911208286117247 -1.1017253446759607 C 0.10405847302521609 -1.1012674981024975 0.18754814230377959 -1.0161080354383625 0.18668631345961373 -0.9125404473058737 C 0.18582448461544798 -0.8104137292722244 0.10172884193083032 -0.7275838977024753 -0.0004382743298892988 -0.72827066756267 M 0.0004370205899666413 -0.9902666361890783 C -0.042061914287960245 -0.9902935683404585 -0.0765081359032127 -0.9559416092550366 -0.07640040729769204 -0.9136581315881512 C -0.07629267869217127 -0.8736504207128911 -0.04097116215706287 -0.8388810132810764 -0.00030361357298835934 -0.8387463525241756 C 0.041548949671814106 -0.8385982256915846 0.07602210343844684 -0.8727616597173452 0.07579318015171521 -0.9141294442373044 C 0.07555079078929361 -0.9569246327804133 0.042558905348570986 -0.9902531701133882 0.0004370205899666413 -0.9902666361890783 M 0.0200705589461192 -0.785757344683668 C 0.020016694643358757 -0.7963686123274596 0.01011912901114198 -0.806064186824325 -0.0004652064812694645 -0.8058756617646636 C -0.010053052372614113 -0.8057006027806926 -0.02023340559432285 -0.7956683763915748 -0.020300735972773265 -0.7863363859383418 C -0.020394998502603956 -0.7758732451271413 -0.01053783109745754 -0.7656794258297424 -0.0002362831945379451 -0.7655582311485316 C 0.010321120146493334 -0.7654235703916307 0.020110957173189337 -0.7751730091912565 0.0200705589461192 -0.785757344683668 M -0.111506466621759 -0.9988310603279762 C -0.12219299454218613 -0.9990363072667925 -0.13106943836128282 -0.9906333536986808 -0.13144972471878358 -0.9799516222104686 C -0.13186717306517637 -0.9692326259611563 -0.1223735897036623 -0.9591061370422079 -0.11176232205987069 -0.9589445441339269 C -0.1012991812486701 -0.9587829512256458 -0.09164400497887493 -0.9688286436904536 -0.09187292826560645 -0.9796149703182164 C -0.09211424011317182 -0.9902887573322106 -0.10082995880941525 -0.9988191623936229 -0.111506466621759 -0.9988310603279762 M -0.11204510964936265 -0.8701761731848477 C -0.12210426818986042 -0.8700011142008766 -0.13163824977844485 -0.8606691237476435 -0.13174597838396562 -0.8508658206452574 C -0.13188063914086656 -0.8398909689578333 -0.12275063982298484 -0.8304243177476994 -0.11200471142229229 -0.8303973855963193 C -0.10076053822106645 -0.8303569873692489 -0.09180559788715603 -0.8391638008705684 -0.09188639434129653 -0.8501790507850628 C -0.09188983547790297 -0.8555096190654838 -0.09401999081987011 -0.8606184976757213 -0.09780441007796736 -0.8643725809077033 C -0.1015888293360645 -0.8681266641396852 -0.10671468631501413 -0.870215633422946 -0.11204510964935765 -0.8701761731848477 M 0.019316458707474005 -1.0428651278345733 C 0.019491517691445193 -1.0547960708959938 0.011977447456374524 -1.0629430466884988 0.0003023598330658128 -1.0634682236404123 C -0.009904925540023202 -1.0639126041381854 -0.020354600275533707 -1.0538938438247578 -0.020287269897083293 -1.0437269566787393 C -0.020206473442942685 -1.0335062052299602 -0.011372727790243009 -1.0243358076850082 -0.001125044190083857 -1.023851028960165 C 0.010469246979084357 -1.0233123859325612 0.019141399723502928 -1.0313650991952357 0.019316458707474005 -1.0428651278345733 M 0.13103102263246813 -0.8505426348286952 C 0.13078863327004642 -0.8620022652409627 0.12204915014717754 -0.8705397572284802 0.11079151087026151 -0.8703377660931289 C 0.10120366497891675 -0.8701492410334676 0.09109064213565854 -0.8599823538874489 0.09118490466548912 -0.8506099652071457 C 0.0912926332710099 -0.8395408509898911 0.10163457940099974 -0.8298856747200959 0.11282488829946524 -0.8303973855963193 C 0.12338229164049641 -0.8308821643211626 0.13125994591919965 -0.8395947152926513 0.13103102263246813 -0.8505426348286952 M 0.1312195476921294 -0.9796957667723569 C 0.1310444887081581 -0.9905090255514999 0.12270898785599194 -0.9988445264036662 0.1120303898337498 -0.9988579924793564 C 0.10114980067615631 -0.9988849246307365 0.09123876896824945 -0.9895260020261233 0.09123876896824945 -0.979251386274584 C 0.09125223504393964 -0.9693134224152969 0.10154031687116905 -0.9592273317234189 0.11193612730391911 -0.958958010209617 C 0.12211648052562785 -0.9587021547715053 0.1313811406004104 -0.9686670507821725 0.1312195476921294 -0.9796957667723569" fill="#f2f0f0" transform="matrix(1,0,0,1,0,0)" fill-rule="nonzero"></path></g><g clip-path="url(#ad4bbfd4a-c76b-4de7-b12e-a61d7695d7e1aed34152-59a0-4be3-8cf7-8df3671f07e2)"><path d=" M 0.191749557919088 -0.8464354817432174 C 0.21433216685137035 -0.9195966709674813 0.20279173998496247 -0.9850687309727032 0.15615871987017782 -1.045208225004649 C 0.20110848052370123 -1.049948283647561 0.2444423120944137 -1.0546210119120225 0.2878030758165062 -1.0590782829654426 C 0.35431202364986514 -1.0658921172646285 0.42083443755891414 -1.0725578247312235 0.48735685146796337 -1.0793043286519592 C 0.5058592394661481 -1.0811761131728819 0.5243750935400231 -1.0828055083313828 0.5428236172354477 -1.0850812751230081 C 0.5486948262363271 -1.085794977134583 0.5504050178489686 -1.0834653460401973 0.5518997522505689 -1.0784424998077933 C 0.5640865507501012 -1.0376133583154377 0.5706714617625557 -0.9958146593733956 0.5748190130751036 -0.95350424955513 C 0.5757751044491 -0.9437278786041241 0.5690555326797446 -0.9440510644206862 0.5636825684793982 -0.9426640586246069 C 0.4975372046896722 -0.9255082781954311 0.4313379765971852 -0.9085814210529868 0.36517914673176866 -0.8914929710022615 C 0.3080021893516427 -0.8767206859702318 0.250865630198587 -0.8618002741056111 0.191749557919088 -0.8464354817432174 M 0.26217713377826335 -0.9259930569202744 C 0.26513967043008346 -0.926531699947878 0.267752089113961 -0.9268414196887501 0.2702837113436981 -0.9275012573975645 C 0.3437950185359042 -0.9465018901962827 0.41729285965242036 -0.9655563872977614 0.49081763292031666 -0.9845435540207896 C 0.5125788112355036 -0.9901589075835574 0.5122690914946313 -0.9899973146752764 0.5081080741063932 -1.0119604841258147 C 0.5063978824937518 -1.0209827548381756 0.5023715258624146 -1.0225044213911558 0.49369937311799594 -1.0215483300171595 C 0.43564712081801416 -1.0151519440643662 0.37752753813958195 -1.009374997593317 0.3194214215368396 -1.0034499242896773 C 0.2995993581210259 -1.0014300129361635 0.27972343040245184 -0.9997871517019724 0.25995523128939835 -0.9973901902291362 C 0.2557134174470196 -0.9968784793529128 0.24775496671417596 -0.997794172499839 0.25087909627427707 -0.9887584357117881 C 0.2578679895574343 -0.9685458561009617 0.2593492578833443 -0.9473367868890684 0.26217713377826335 -0.9259930569202744" fill="#f2f0f0" transform="matrix(1,0,0,1,0,0)" fill-rule="nonzero"></path></g><g clip-path="url(#ad4bbfd4a-c76b-4de7-b12e-a61d7695d7e1aed34152-59a0-4be3-8cf7-8df3671f07e2)"><path d=" M -0.15660435410787332 -1.04532941968586 C -0.20524381950048165 -0.9718181124936538 -0.21092650344170005 -0.940280563227461 -0.19274730126007733 -0.846947192619441 C -0.23484225386730145 -0.8577200531715138 -0.2766005545822733 -0.8683313208153053 -0.31833192314586495 -0.879090715291688 C -0.4003807223255888 -0.9002324541251306 -0.48241605542962246 -0.921468455488404 -0.5644783206850363 -0.9425832621704665 C -0.571399883589743 -0.9443742502372486 -0.5753589098426297 -0.9465692205747334 -0.5745240131498441 -0.9555510930600241 C -0.570725276492583 -0.9960731605721489 -0.5635270048363019 -1.0362042007384873 -0.5530052241970791 -1.0755203613830435 C -0.5507294574054535 -1.0840309212191812 -0.5471744134232696 -1.0854313930909507 -0.5380982784081483 -1.084448369565574 C -0.46371167629608623 -1.0763821902272097 -0.3892173455785034 -1.0693798308683622 -0.314776879163681 -1.0618522945576014 C -0.26244770903198783 -1.0565601268113958 -0.21017240320305497 -1.0509313071729378 -0.15660435410787332 -1.04532941968586 M -0.5007568505195262 -1.0218311176066512 C -0.50130895962282 -1.0216964568497504 -0.5049313339834545 -1.0215617960928496 -0.5051467911944958 -1.0206191707945433 C -0.507382159759051 -1.0112063838871697 -0.5106409500760529 -1.001632004071515 -0.5103581624865611 -0.9921922850127614 C -0.5101427052755196 -0.9850014005942528 -0.5009723077305677 -0.9873040995372583 -0.49592252934678366 -0.9859844241196294 C -0.42117234319108904 -0.9663912839905472 -0.34628749627849365 -0.9473637190404487 -0.2715642422741793 -0.9276763163815359 C -0.26252850548612827 -0.9252928209843897 -0.26093950855469755 -0.9277975110627467 -0.26056245843537507 -0.9359444868552518 C -0.25983529034811015 -0.9518748543966291 -0.25784231114597667 -0.967859086240767 -0.2523346861887295 -0.982819896332458 C -0.24762155969719768 -0.9956396003894246 -0.25307532035168445 -0.9971074026396445 -0.26394244343358786 -0.9980904261650211 C -0.31376692348692414 -1.0026284936725818 -0.36352407316180996 -1.0079341274944775 -0.4132946889123859 -1.0129569737268815 L -0.5007568505195262 -1.0218311176066512" fill="#f2f0f0" transform="matrix(1,0,0,1,0,0)" fill-rule="nonzero"></path></g><g clip-path="url(#ad4bbfd4a-c76b-4de7-b12e-a61d7695d7e1aed34152-59a0-4be3-8cf7-8df3671f07e2)"><path d=" M -0.10038348810174391 -0.737925843832465 C -0.06854968517036908 -0.72087779200881 -0.03545007112412557 -0.7112091496633246 0.00010036869771434809 -0.7114650051014364 C 0.03551614776265344 -0.711707394463858 0.06887161724700841 -0.7204064793596567 0.1009882077678752 -0.7385318172385191 C 0.098119933645886 -0.6995609941913961 0.09545365065924794 -0.6625831503464065 0.09265270691570904 -0.625632238652797 C 0.08861288420868185 -0.5722123163902066 0.08441146859337345 -0.5188193262789962 0.08037164588634615 -0.46539940401640556 C 0.07744504524086726 -0.42745685856281335 0.07470690941285474 -0.38950001174038573 0.07215733971535232 -0.3515302679804415 C 0.07175335744468803 -0.34537627139062543 0.06970651393979421 -0.3435718172481532 0.06363331380356307 -0.3428715813122687 C 0.02077079488200395 -0.33784873507986446 -0.022010927585414897 -0.3383604459560883 -0.06485998043128416 -0.342925445615029 C -0.07135062891390787 -0.34362568155091355 -0.0713236967625277 -0.3468171414894654 -0.07168728080616016 -0.3514898697539268 C -0.07583483211870812 -0.40579855301206313 -0.08018437456660754 -0.4600803041188197 -0.08434539195484558 -0.5143889873769563 C -0.08975875438226211 -0.5849916222201028 -0.09505092212846789 -0.6556211892146294 -0.10035655595036375 -0.726237290133466 C -0.10061241138847543 -0.7296711394344393 -0.10038348810174391 -0.7331453869624828 -0.10038348810174391 -0.737925843832465 M -0.009339350361039389 -0.6529818383793717 C -0.014631518107245056 -0.6534262188771446 -0.01999101623190136 -0.6534666171042149 -0.02520238752396642 -0.654382310251141 C -0.03379374381424438 -0.6558905107284313 -0.03598871415172922 -0.6539379297533682 -0.03522114783739394 -0.6443231517106432 C -0.029013286944262084 -0.5667046914329594 -0.02359992451684567 -0.48903236685251494 -0.017984570954077683 -0.41138697442345107 C -0.017432461850784065 -0.40375170950716943 -0.017957638802697518 -0.39534887827655285 -0.006188288649558005 -0.3972610610245457 C 0.003466887620237058 -0.3988365918802863 0.017323479505340633 -0.3906088196336408 0.018158376198126325 -0.4108887296229178 C 0.01961271237265616 -0.44623717830940635 0.023140824203459864 -0.4815048305417542 0.025739776811647408 -0.5168128810011725 C 0.028863906371748516 -0.5591636890465084 0.03159751973683689 -0.6015414292432246 0.035219894097471394 -0.64385183906149 C 0.03610865509301742 -0.6541129887373394 0.03260747541359377 -0.6556885195930799 0.023746797609513925 -0.6544227084782115 C 0.012812344149160215 -0.6528471776224708 0.0017701620832857312 -0.6515813665076022 -0.009339350361039389 -0.6529818383793717" fill="#f2f0f0" transform="matrix(1,0,0,1,0,0)" fill-rule="nonzero"></path></g><g clip-path="url(#ad4bbfd4a-c76b-4de7-b12e-a61d7695d7e1aed34152-59a0-4be3-8cf7-8df3671f07e2)"><path d=" M 0.010644305963055545 -1.6418631066811962 C -0.3968256783434047 -1.6476265870765552 -0.7216678222154672 -1.3196199154173212 -0.7270946507185739 -0.9254813460440511 C -0.7326830721299615 -0.5211624234490722 -0.40731575130598546 -0.18793091442208265 -0.00033054572436852503 -0.1875 C 0.39884433595699575 -0.1877289232867314 0.7198217161060023 -0.507238501185518 0.7270395326758909 -0.9006229703201433 C 0.7344862725325112 -1.3069079399658754 0.4110042023051479 -1.636193888815668 0.010644305963055545 -1.6418631066811962 M 0.401685677927605 -0.48038714625947687 C 0.31469482896961765 -0.3974495860842069 0.20986142972226007 -0.34716725945740756 0.09051160088098453 -0.33005187725530205 C -0.10003337013380142 -0.30272920968010775 -0.266043151241242 -0.35590674258027666 -0.4078543943335891 -0.4855715854001619 C -0.4297771655570571 -0.5056225721027072 -0.44877779835577536 -0.528420638246031 -0.4678053633058738 -0.5511783061622848 L -0.4789283418258889 -0.5666777592815793 L -0.48652320851510017 -0.5757673603723905 L -0.505173723345876 -0.6045039658950446 L -0.5217908607474482 -0.6333079017961489 L -0.5240666275390735 -0.6360684473126175 L -0.5240800936147636 -0.6360819133883078 L -0.5373307120938131 -0.6654110262413255 L -0.5450737056156153 -0.6815029866909842 L -0.5557388375621674 -0.7082735451628849 C -0.5671311375959842 -0.7435411973952328 -0.5782541161159993 -0.7789165782331015 -0.583694410694796 -0.8156924309427399 C -0.6119193053412265 -1.006681782455299 -0.5634952971596596 -1.1750211946571252 -0.43271277005749703 -1.3179231898803696 C -0.34739171448508116 -1.411162297958559 -0.24134636842561535 -1.4694838717723426 -0.11787592042317196 -1.4949616869779947 C -0.020394998502603956 -1.5150800040589905 0.07649341608759996 -1.5098955649183055 0.1719813588060345 -1.4812801540768623 C 0.17408206661368864 -1.4806607145951183 0.17623663872410322 -1.480202868021655 0.17836427868313753 -1.4796507589183614 L 0.2159346298584911 -1.4665348011962127 L 0.24270518833039179 -1.456058194309322 L 0.30582068508984794 -1.4230932410199797 C 0.3060595294748969 -1.422330630304992 0.3066939696595956 -1.4217580867236785 0.307477012399729 -1.4215985066183796 L 0.30933533084496156 -1.4198075185515975 C 0.3151796076944611 -1.4165083300075252 0.31996006456444337 -1.4113508230182203 0.3268008310150097 -1.4097752921624798 L 0.327177881134332 -1.410435129871294 C 0.3261948576089555 -1.4074860592951643 0.3289150048983538 -1.4078765754901768 0.33026161246736274 -1.4070416787973912 C 0.3348266121263037 -1.4029614578632936 0.3394724082393852 -1.398988965534717 0.3454648119214756 -1.3971037149381043 C 0.3603852237860963 -1.3846745270761502 0.37562882146727916 -1.372622389333519 0.3901587171368872 -1.359762287049482 C 0.4927702138953798 -1.2689874708225795 0.5592926278044286 -1.15647840843187 0.5819156349637813 -1.0215617960928496 C 0.6173044818773403 -0.8103867971208442 0.5568956663315925 -0.6283658520178856 0.401685677927605 -0.48038714625947665" fill="#f2f0f0" transform="matrix(1,0,0,1,0,0)" fill-rule="nonzero"></path></g></g></g><defs><clipPath id="SvgjsClipPath1001"><path d=" M -0.7271655748272359 -1.6419379218601964 h 1.4543311496544717 v 1.4544379218601964 h -1.4543311496544717 Z"></path></clipPath><clipPath id="ad4bbfd4a-c76b-4de7-b12e-a61d7695d7e1aed34152-59a0-4be3-8cf7-8df3671f07e2"><path d=" M -0.7271619810970243 -0.1875 L 0.727174193432792 -0.1875 L 0.727174193432792 -1.641943903135337 L -0.7271619810970243 -1.641943903135337 Z"></path></clipPath></defs></svg>